<svg width="147" height="42" fill="none" xmlns="http://www.w3.org/2000/svg"><path d="M18.146 3.614H3.52v3.812H13.64v3.585H3.52v7.086H0V.028h18.146v3.586ZM40.08 3.614H25.456v3.812h10.118v3.585H25.456v3.49H40.08v3.596H21.934V.028H40.08v3.586ZM61.995 18.097h-5.454l-6.206-5.336h-2.946v5.336h-3.52V.028H55.76c1.121 0 2.14.287 3.057.861a6.346 6.346 0 0 1 2.202 2.308c.551.965.827 2.031.827 3.198 0 1.167-.273 2.232-.818 3.197a6.343 6.343 0 0 1-2.183 2.29c-.91.567-1.93.86-3.057.88l6.206 5.335ZM47.39 3.604v5.591h8.37c.707 0 1.311-.274 1.813-.823.502-.549.752-1.208.752-1.977 0-.77-.25-1.425-.752-1.968-.502-.548-1.106-.823-1.812-.823h-8.372ZM83.91 0v18.068h-3.52V6.754l-4.405 7.833H73.71l-4.404-7.833v11.314h-3.521V0h3.79l5.269 9.384L80.12 0h3.79ZM105.761.028l-7.173 9.744v8.325h-3.52V9.715L87.698.028h4.46l4.673 6.14 4.525-6.14h4.404ZM116.109 18.097c1.239 0 2.4-.234 3.484-.7a9.052 9.052 0 0 0 2.862-1.95 9.061 9.061 0 0 0 1.933-2.875 8.82 8.82 0 0 0 .706-3.51 8.776 8.776 0 0 0-.706-3.51 9.063 9.063 0 0 0-1.933-2.875 8.923 8.923 0 0 0-2.862-1.94 8.615 8.615 0 0 0-3.484-.709 8.678 8.678 0 0 0-3.493.71 9.067 9.067 0 0 0-2.862 1.94 9.266 9.266 0 0 0-1.933 2.875 8.873 8.873 0 0 0-.696 3.51c0 1.242.232 2.412.696 3.51a9.265 9.265 0 0 0 1.933 2.875 9.2 9.2 0 0 0 2.862 1.949 8.78 8.78 0 0 0 3.493.7Zm0-14.464c.991 0 1.896.246 2.713.737a5.448 5.448 0 0 1 1.951 1.968c.49.82.734 1.728.734 2.725 0 .996-.244 1.907-.734 2.733a5.547 5.547 0 0 1-1.951 1.968 5.212 5.212 0 0 1-2.713.729 5.215 5.215 0 0 1-2.713-.729 5.622 5.622 0 0 1-1.96-1.968 5.318 5.318 0 0 1-.725-2.733c0-.997.242-1.905.725-2.725a5.52 5.52 0 0 1 1.96-1.968 5.164 5.164 0 0 1 2.713-.737ZM143.479.028H147v18.069h-4.042L132.394 5.033v13.064h-3.521V.028h4.041l10.565 13.064V.028Z" fill="#11203D"/><path d="M48.87 30.582c.677 0 1.262.098 1.755.294.494.185.923.44 1.288.767v2.283a15.28 15.28 0 0 0-.805-.57 4.072 4.072 0 0 0-.95-.457c-.343-.12-.75-.18-1.223-.18-.644 0-1.229.158-1.755.473-.525.316-.944.74-1.255 1.273-.311.532-.467 1.141-.467 1.826 0 .674.156 1.283.467 1.827.311.533.73.957 1.255 1.272.526.305 1.111.457 1.755.457.719 0 1.32-.109 1.803-.326a6.182 6.182 0 0 0 1.336-.832v2.202c-.365.337-.821.609-1.368.815A5.422 5.422 0 0 1 48.87 42a5.893 5.893 0 0 1-2.19-.408 5.838 5.838 0 0 1-1.819-1.174 5.58 5.58 0 0 1-1.239-1.81c-.3-.697-.45-1.469-.45-2.317 0-.848.15-1.62.45-2.316.3-.696.714-1.294 1.24-1.794a5.474 5.474 0 0 1 1.818-1.174 5.695 5.695 0 0 1 2.19-.425ZM57.8 30.827v8.89h5.392v2.038h-7.63V30.827h2.237ZM71.412 30.582c.773 0 1.497.142 2.174.425a5.338 5.338 0 0 1 1.786 1.174c.526.5.934 1.098 1.224 1.794.3.696.45 1.468.45 2.316 0 .848-.15 1.62-.45 2.316-.29.696-.698 1.3-1.224 1.81a5.69 5.69 0 0 1-1.786 1.175c-.677.272-1.4.408-2.174.408a5.892 5.892 0 0 1-2.189-.408 5.889 5.889 0 0 1-1.803-1.174 5.71 5.71 0 0 1-1.223-1.81c-.29-.697-.435-1.469-.435-2.317 0-.848.145-1.62.435-2.316a5.519 5.519 0 0 1 3.026-2.968 5.695 5.695 0 0 1 2.19-.425Zm0 2.137c-.643 0-1.223.158-1.738.473-.504.316-.901.74-1.191 1.273-.29.532-.435 1.141-.435 1.826 0 .674.145 1.283.435 1.827.29.533.687.957 1.191 1.272a3.351 3.351 0 0 0 1.738.457c.644 0 1.218-.152 1.723-.457.504-.315.901-.74 1.191-1.272.29-.544.435-1.153.435-1.827 0-.685-.145-1.294-.435-1.826a3.374 3.374 0 0 0-1.191-1.273c-.505-.315-1.079-.473-1.723-.473ZM89.694 30.795v6.638c0 .946-.21 1.762-.628 2.447a4.175 4.175 0 0 1-1.674 1.565c-.698.36-1.481.539-2.35.539-.87 0-1.658-.18-2.367-.539a4.289 4.289 0 0 1-1.69-1.565c-.408-.685-.611-1.501-.611-2.447v-6.638h2.237v6.508c0 .837.22 1.468.66 1.892.45.413 1.04.614 1.77.603.72 0 1.305-.206 1.755-.62.451-.413.676-1.038.676-1.875v-6.508h2.222ZM98.091 30.566c1.138 0 2.136.234 2.994.702a4.97 4.97 0 0 1 1.996 1.957c.483.837.725 1.821.725 2.952 0 1.077-.226 2.055-.676 2.936a5.174 5.174 0 0 1-1.932 2.072c-.837.51-1.835.766-2.994.766-.74 0-1.48-.038-2.221-.114-.73-.076-1.422-.18-2.077-.31V30.99a54.563 54.563 0 0 1 2.044-.293c.698-.087 1.412-.13 2.141-.13Zm.049 2.12c-.322 0-.66.017-1.014.05-.355.032-.682.076-.982.13v6.785c.322.066.654.114.998.147.354.022.686.033.998.033.708 0 1.314-.153 1.819-.457.504-.315.89-.745 1.159-1.289.268-.543.402-1.152.402-1.826 0-.696-.134-1.31-.402-1.843a3.032 3.032 0 0 0-1.16-1.256c-.504-.316-1.11-.473-1.818-.473Z" fill="#34E8BD"/></svg>