<svg width="170" height="21" viewBox="0 0 170 21" fill="none" xmlns="http://www.w3.org/2000/svg">
<path d="M12.1922 6.78686H2.36602V9.31483H9.16442V11.6922H2.36602V16.3906H0V4.40944H0.26844H2.36602H12.1922V6.78686Z" fill="#11203D"/>
<path d="M26.9297 6.78686H17.1035V9.31483H23.9019V11.6922H17.1035V14.0069H26.9297V16.3906H17.1035H15.0059H14.7375V4.40944H17.1035H26.9297V6.78686Z" fill="#11203D"/>
<path d="M41.6547 16.3906H37.9902L33.82 12.8527H31.841V16.3906H29.475V4.40944H37.4658C38.2191 4.40944 38.9037 4.59972 39.5196 4.98027C40.1398 5.36083 40.6329 5.87102 40.9992 6.51085C41.3696 7.15069 41.5548 7.85743 41.5548 8.63108C41.5548 9.40474 41.3717 10.1115 41.0054 10.7513C40.6392 11.387 40.1502 11.893 39.5384 12.2693C38.9266 12.6457 38.2419 12.8402 37.4845 12.8527L41.6547 16.3906ZM31.841 6.78059V10.4879H37.4658C37.9402 10.4879 38.346 10.3059 38.6831 9.94211C39.0202 9.57829 39.1888 9.14128 39.1888 8.63108C39.1888 8.12089 39.0202 7.68597 38.6831 7.32633C38.346 6.9625 37.9402 6.78059 37.4658 6.78059H31.841Z" fill="#11203D"/>
<path d="M55.1935 4.39062H56.3797V16.3718H54.0137V8.86945L51.0546 14.0634H49.5251L46.566 8.86945V16.3718H44.2V4.39062H45.3861H46.747L50.2867 10.6133L53.8326 4.39062H55.1935Z" fill="#11203D"/>
<path d="M71.061 4.40944L66.2415 10.8705V16.3906H63.8755V10.8329L58.925 4.40944H61.9215L65.0617 8.48054L68.1019 4.40944H71.061Z" fill="#11203D"/>
<path d="M78.0137 16.3906C78.8461 16.3906 79.6264 16.2359 80.3548 15.9264C81.0872 15.6128 81.7282 15.1821 82.2775 14.6342C82.8311 14.0864 83.2639 13.4507 83.576 12.7273C83.8923 11.9996 84.0505 11.2239 84.0505 10.4C84.0505 9.57202 83.8923 8.79627 83.576 8.0728C83.2639 7.34933 82.8311 6.71368 82.2775 6.16585C81.7282 5.61802 81.0872 5.18937 80.3548 4.87991C79.6264 4.56627 78.8461 4.40944 78.0137 4.40944C77.1813 4.40944 76.3989 4.56627 75.6664 4.87991C74.9381 5.18937 74.2972 5.61802 73.7436 6.16585C73.1943 6.71368 72.7614 7.34933 72.4451 8.0728C72.133 8.79627 71.9769 9.57202 71.9769 10.4C71.9769 11.2239 72.133 11.9996 72.4451 12.7273C72.7614 13.4507 73.1943 14.0864 73.7436 14.6342C74.2972 15.1821 74.9381 15.6128 75.6664 15.9264C76.3989 16.2359 77.1813 16.3906 78.0137 16.3906ZM78.0137 6.79941C78.6796 6.79941 79.2872 6.9625 79.8366 7.28869C80.386 7.6107 80.823 8.04562 81.1476 8.59345C81.4764 9.1371 81.6408 9.73929 81.6408 10.4C81.6408 11.0608 81.4764 11.6651 81.1476 12.2129C80.823 12.7565 80.386 13.1915 79.8366 13.5177C79.2872 13.8397 78.6796 14.0007 78.0137 14.0007C77.3478 14.0007 76.7402 13.8397 76.1908 13.5177C75.6414 13.1915 75.2024 12.7565 74.8736 12.2129C74.549 11.6651 74.3866 11.0608 74.3866 10.4C74.3866 9.73929 74.549 9.1371 74.8736 8.59345C75.2024 8.04562 75.6414 7.6107 76.1908 7.28869C76.7402 6.9625 77.3478 6.79941 78.0137 6.79941Z" fill="#11203D"/>
<path d="M96.4032 4.40944H98.7692V16.3906H97.5831H96.0536L88.9556 7.72779V16.3906H86.5896V4.40944H89.3052L96.4032 13.0723V4.40944Z" fill="#11203D"/>
<path d="M110.399 4.15071C111.126 4.15071 111.754 4.25449 112.285 4.46207C112.815 4.65812 113.276 4.92913 113.668 5.27509V7.69684C113.392 7.48927 113.103 7.28745 112.803 7.09141C112.504 6.89536 112.163 6.73391 111.783 6.60706C111.414 6.4802 110.976 6.41677 110.468 6.41677C109.776 6.41677 109.148 6.58399 108.583 6.91842C108.018 7.25286 107.568 7.70261 107.233 8.26769C106.899 8.83276 106.732 9.47856 106.732 10.2051C106.732 10.9201 106.899 11.5659 107.233 12.1425C107.568 12.7076 108.018 13.1573 108.583 13.4918C109.148 13.8147 109.776 13.9761 110.468 13.9761C111.241 13.9761 111.887 13.8608 112.406 13.6301C112.936 13.388 113.415 13.0939 113.841 12.7479V15.0832C113.449 15.4407 112.959 15.729 112.371 15.9481C111.783 16.1557 111.126 16.2595 110.399 16.2595C109.569 16.2595 108.785 16.1153 108.046 15.827C107.308 15.5272 106.657 15.112 106.092 14.5815C105.527 14.0395 105.083 13.3995 104.76 12.6614C104.437 11.9234 104.275 11.1046 104.275 10.2051C104.275 9.30558 104.437 8.4868 104.76 7.74874C105.083 7.01068 105.527 6.37641 106.092 5.84593C106.657 5.30392 107.308 4.88876 108.046 4.60046C108.785 4.30062 109.569 4.15071 110.399 4.15071ZM119.994 4.41018V13.8377H125.789V16H117.59V4.41018H119.994ZM134.446 4.15071C135.276 4.15071 136.054 4.30062 136.781 4.60046C137.507 4.88876 138.147 5.30392 138.701 5.84593C139.266 6.37641 139.704 7.01068 140.016 7.74874C140.339 8.4868 140.5 9.30558 140.5 10.2051C140.5 11.1046 140.339 11.9234 140.016 12.6614C139.704 13.3995 139.266 14.0395 138.701 14.5815C138.147 15.112 137.507 15.5272 136.781 15.827C136.054 16.1153 135.276 16.2595 134.446 16.2595C133.615 16.2595 132.831 16.1153 132.093 15.827C131.367 15.5272 130.721 15.112 130.156 14.5815C129.602 14.0395 129.164 13.3995 128.841 12.6614C128.53 11.9234 128.374 11.1046 128.374 10.2051C128.374 9.30558 128.53 8.4868 128.841 7.74874C129.164 7.01068 129.602 6.37641 130.156 5.84593C130.721 5.30392 131.367 4.88876 132.093 4.60046C132.831 4.30062 133.615 4.15071 134.446 4.15071ZM134.446 6.41677C133.754 6.41677 133.131 6.58399 132.577 6.91842C132.035 7.25286 131.609 7.70261 131.297 8.26769C130.986 8.83276 130.83 9.47856 130.83 10.2051C130.83 10.9201 130.986 11.5659 131.297 12.1425C131.609 12.7076 132.035 13.1573 132.577 13.4918C133.131 13.8147 133.754 13.9761 134.446 13.9761C135.138 13.9761 135.755 13.8147 136.297 13.4918C136.839 13.1573 137.265 12.7076 137.577 12.1425C137.888 11.5659 138.044 10.9201 138.044 10.2051C138.044 9.47856 137.888 8.83276 137.577 8.26769C137.265 7.70261 136.839 7.25286 136.297 6.91842C135.755 6.58399 135.138 6.41677 134.446 6.41677ZM153.914 4.37558V11.416C153.914 12.4193 153.689 13.2842 153.239 14.0107C152.801 14.7257 152.201 15.2792 151.44 15.6713C150.691 16.0519 149.849 16.2422 148.915 16.2422C147.98 16.2422 147.133 16.0519 146.372 15.6713C145.611 15.2792 145.005 14.7257 144.555 14.0107C144.117 13.2842 143.898 12.4193 143.898 11.416V4.37558H146.303V11.2776C146.303 12.1656 146.539 12.8344 147.012 13.2842C147.496 13.7224 148.13 13.9357 148.915 13.9242C149.687 13.9242 150.316 13.7051 150.8 13.2669C151.284 12.8287 151.527 12.1656 151.527 11.2776V4.37558H153.914ZM162.584 4.13341C163.806 4.13341 164.879 4.38135 165.801 4.87723C166.724 5.37311 167.439 6.06504 167.946 6.95302C168.465 7.841 168.725 8.88466 168.725 10.084C168.725 11.2257 168.482 12.2636 167.998 13.1977C167.514 14.1203 166.822 14.8526 165.922 15.3946C165.023 15.9366 163.95 16.2076 162.705 16.2076C161.909 16.2076 161.113 16.1672 160.318 16.0865C159.533 16.0058 158.79 15.8962 158.086 15.7578V4.58316C158.801 4.46784 159.533 4.36405 160.283 4.27179C161.033 4.17954 161.799 4.13341 162.584 4.13341ZM162.636 6.38218C162.29 6.38218 161.926 6.39948 161.546 6.43407C161.165 6.46867 160.813 6.5148 160.491 6.57246V13.7685C160.837 13.8377 161.194 13.8896 161.563 13.9242C161.944 13.9473 162.301 13.9588 162.636 13.9588C163.397 13.9588 164.048 13.7974 164.59 13.4745C165.132 13.14 165.547 12.6845 165.836 12.1079C166.124 11.5313 166.268 10.8855 166.268 10.1705C166.268 9.43243 166.124 8.78087 165.836 8.21579C165.547 7.65072 165.132 7.20673 164.59 6.88383C164.048 6.54939 163.397 6.38218 162.636 6.38218Z" fill="#34E8BD"/>
</svg>
